<svg width="1440" height="111" viewBox="0 0 1440 111" fill="none" xmlns="http://www.w3.org/2000/svg">
<path fill-rule="evenodd" clip-rule="evenodd" d="M0 44.4L48 53.28C96 62.16 192 79.92 288 75.48C384 71.04 480 44.4 576 26.64C672 8.88 768 0 864 0C960 0 1056 8.88 1152 24.42C1248 39.96 1344 62.16 1392 73.26L1440 84.36V111H1392C1344 111 1248 111 1152 111C1056 111 960 111 864 111C768 111 672 111 576 111C480 111 384 111 288 111C192 111 96 111 48 111H0V44.4Z" fill="#E5E5E5" fill-opacity="0.13"/>
</svg>
